<svg xmlns="http://www.w3.org/2000/svg" version="1.1" xmlns:xlink="http://www.w3.org/1999/xlink" width="24.026757000168054" height="24.026757000168054"><svg viewBox="-11.871664792067849 -11.871664792067849 24.026757000168054 24.026757000168054" xmlns="http://www.w3.org/2000/svg"><circle cx="0" cy="0" r="3.5" fill="#00009f"></circle> <circle cx="0.0" cy="12.0" r="0.15509220810020635" fill="#00009f"></circle> <circle cx="0.30580944970229096" cy="11.9480870678311" r="0.15509220810020635" fill="#00009f"></circle> <circle cx="0.84808063718439" cy="11.584999578456312" r="0.32630145790117626" fill="#00009f"></circle> <circle cx="1.473562374068415" cy="10.602086112163487" r="0.582526026327415" fill="#00009f"></circle> <circle cx="2.016500848506824" cy="8.697293160976653" r="0.9903305475845625" fill="#00009f"></circle> <circle cx="2.603302434705349" cy="5.405813207414515" r="1.6716889951682483" fill="#00009f"></circle> <circle cx="5.542549891021944" cy="6.999237437430782" r="0.9903305475845615" fill="#00009f"></circle> <circle cx="7.370293589692085" cy="7.762370024789064" r="0.5825260263274165" fill="#00009f"></circle> <circle cx="8.528747766377673" cy="7.88618523352754" r="0.3263014579011756" fill="#00009f"></circle> <circle cx="9.150721551698073" cy="7.6886018939263865" r="0.15509220810020752" fill="#00009f"></circle> <circle cx="9.381977789616357" cy="7.481877622304803" r="0.15509220810020694" fill="#00009f"></circle> <circle cx="9.532059698100895" cy="7.2104189830994345" r="0.15509220810020694" fill="#00009f"></circle> <circle cx="9.586287023254322" cy="6.560072949882935" r="0.32630145790117654" fill="#00009f"></circle> <circle cx="9.207795814960889" cy="5.458215113935025" r="0.5825260263274148" fill="#00009f"></circle> <circle cx="8.057085319988921" cy="3.8461097418585206" r="0.9903305475845622" fill="#00009f"></circle> <circle cx="5.849567473090942" cy="1.3351256037378867" r="1.671688995168248" fill="#00009f"></circle> <circle cx="8.92794751519766" cy="0.030613165075244735" r="0.9903305475845608" fill="#00009f"></circle> <circle cx="10.664168153824043" cy="-0.9225690147436733" r="0.5825260263274131" fill="#00009f"></circle> <circle cx="11.483255147108256" cy="-1.7510874411095885" r="0.3263014579011802" fill="#00009f"></circle> <circle cx="11.716572583967643" cy="-2.3605573250014085" r="0.15509220810020777" fill="#00009f"></circle> <circle cx="11.699134946181884" cy="-2.670251207475772" r="0.15509220810020616" fill="#00009f"></circle> <circle cx="11.580474575246802" cy="-2.9568416616488644" r="0.15509220810020616" fill="#00009f"></circle> <circle cx="11.105823756195182" cy="-3.404722411053614" r="0.32630145790117604" fill="#00009f"></circle> <circle cx="10.008371202382868" cy="-3.795803192384099" r="0.582526026327415" fill="#00009f"></circle> <circle cx="8.030520210930781" cy="-3.9012727592200243" r="0.9903305475845628" fill="#00009f"></circle> <circle cx="4.6909888948081795" cy="-3.740938811152401" r="1.6716889951682476" fill="#00009f"></circle> <circle cx="5.590418563489578" cy="-6.961063444976715" r="0.9903305475845632" fill="#00009f"></circle> <circle cx="5.927706588739846" cy="-8.912794769196148" r="0.5825260263274101" fill="#00009f"></circle> <circle cx="5.790637186349951" cy="-10.069755556917016" r="0.3263014579011794" fill="#00009f"></circle> <circle cx="5.459605485984838" cy="-10.632168731609006" r="0.15509220810020768" fill="#00009f"></circle> <circle cx="5.2066048694106986" cy="-10.811626414829028" r="0.15509220810020768" fill="#00009f"></circle> <circle cx="4.9085558986005635" cy="-10.897540226597634" r="0.15509220810020696" fill="#00009f"></circle> <circle cx="4.262448683201979" cy="-10.805692352786549" r="0.32630145790117565" fill="#00009f"></circle> <circle cx="3.272438940843809" cy="-10.191504274563647" r="0.5825260263274146" fill="#00009f"></circle> <circle cx="1.9568095902826552" cy="-8.710917301144455" r="0.9903305475845638" fill="#00009f"></circle> <circle cx="7.347880794884119e-16" cy="-6.0" r="1.671688995168248" fill="#00009f"></circle> <circle cx="-1.9568095902826532" cy="-8.710917301144457" r="0.9903305475845638" fill="#00009f"></circle> <circle cx="-3.272438940843811" cy="-10.191504274563645" r="0.5825260263274105" fill="#00009f"></circle> <circle cx="-4.262448683201966" cy="-10.805692352786554" r="0.32630145790118065" fill="#00009f"></circle> <circle cx="-4.908555898600561" cy="-10.897540226597636" r="0.15509220810020782" fill="#00009f"></circle> <circle cx="-5.206604869410696" cy="-10.81162641482903" r="0.15509220810020696" fill="#00009f"></circle> <circle cx="-5.459605485984835" cy="-10.632168731609008" r="0.15509220810020768" fill="#00009f"></circle> <circle cx="-5.790637186349939" cy="-10.069755556917022" r="0.3263014579011757" fill="#00009f"></circle> <circle cx="-5.927706588739847" cy="-8.912794769196147" r="0.5825260263274161" fill="#00009f"></circle> <circle cx="-5.590418563489576" cy="-6.961063444976718" r="0.9903305475845617" fill="#00009f"></circle> <circle cx="-4.690988894808179" cy="-3.740938811152402" r="1.6716889951682476" fill="#00009f"></circle> <circle cx="-8.03052021093078" cy="-3.901272759220026" r="0.9903305475845647" fill="#00009f"></circle> <circle cx="-10.008371202382868" cy="-3.7958031923840974" r="0.5825260263274109" fill="#00009f"></circle> <circle cx="-11.105823756195178" cy="-3.4047224110536263" r="0.3263014579011798" fill="#00009f"></circle> <circle cx="-11.5804745752468" cy="-2.9568416616488697" r="0.15509220810020696" fill="#00009f"></circle> <circle cx="-11.699134946181884" cy="-2.670251207475775" r="0.15509220810020766" fill="#00009f"></circle> <circle cx="-11.716572583967642" cy="-2.360557325001411" r="0.15509220810020766" fill="#00009f"></circle> <circle cx="-11.483255147108254" cy="-1.7510874411096018" r="0.32630145790117526" fill="#00009f"></circle> <circle cx="-10.664168153824043" cy="-0.9225690147436759" r="0.5825260263274157" fill="#00009f"></circle> <circle cx="-8.92794751519766" cy="0.03061316507524255" r="0.9903305475845608" fill="#00009f"></circle> <circle cx="-5.849567473090942" cy="1.3351256037378854" r="1.671688995168248" fill="#00009f"></circle> <circle cx="-8.057085319988921" cy="3.8461097418585184" r="0.990330547584564" fill="#00009f"></circle> <circle cx="-9.207795814960889" cy="5.458215113935027" r="0.58252602632741" fill="#00009f"></circle> <circle cx="-9.586287023254329" cy="6.560072949882923" r="0.3263014579011802" fill="#00009f"></circle> <circle cx="-9.532059698100898" cy="7.210418983099431" r="0.15509220810020694" fill="#00009f"></circle> <circle cx="-9.381977789616359" cy="7.4818776223048005" r="0.15509220810020752" fill="#00009f"></circle> <circle cx="-9.150721551698075" cy="7.688601893926384" r="0.15509220810020752" fill="#00009f"></circle> <circle cx="-8.528747766377677" cy="7.886185233527537" r="0.3263014579011759" fill="#00009f"></circle> <circle cx="-7.3702935896920865" cy="7.762370024789063" r="0.5825260263274163" fill="#00009f"></circle> <circle cx="-5.542549891021946" cy="6.999237437430781" r="0.9903305475845615" fill="#00009f"></circle> <circle cx="-2.60330243470535" cy="5.405813207414514" r="1.671688995168248" fill="#00009f"></circle> <circle cx="-2.016500848506827" cy="8.69729316097665" r="0.9903305475845621" fill="#00009f"></circle> <circle cx="-1.4735623740684216" cy="10.602086112163486" r="0.5825260263274161" fill="#00009f"></circle> <circle cx="-0.8480806371843922" cy="11.584999578456312" r="0.326301457901175" fill="#00009f"></circle> <circle cx="-0.30580944970229634" cy="11.9480870678311" r="0.155092208100209" fill="#00009f"></circle></svg><style>@media (prefers-color-scheme: light) { :root { filter: none; } }
@media (prefers-color-scheme: dark) { :root { filter: invert(100%); } }
</style></svg>